# 3ds Max Wavefront OBJ Exporter v0.99 - (c)2007 guruware
# File Created: 28.01.2025 01:26:48

#
# object SM_Banner
#

v  0.0321 -7.5175 0.4055
v  0.0321 0.0000 0.4055
v  -0.0000 0.0000 0.2762
v  0.0000 -7.7347 0.2762
v  0.0316 -7.7347 0.1427
v  0.0316 0.0000 0.1427
v  -0.0000 0.0000 -0.0000
v  0.0000 -7.7347 -0.0000
v  0.0000 -7.7347 -0.1334
v  -0.0000 0.0000 -0.1334
v  0.0264 0.0000 -0.2762
v  0.0264 -7.7347 -0.2762
v  0.0281 -7.2710 -0.5523
v  0.0000 -7.3378 -0.5125
v  -0.0000 0.0000 -0.5125
v  0.0281 0.0000 -0.5523
v  0.0000 -7.5300 -0.3981
v  -0.0000 0.0000 -0.3981
v  0.0266 -7.2710 0.5523
v  0.0266 0.0000 0.5523
v  -0.0000 0.0000 0.5131
v  0.0000 -7.3368 0.5131
# 22 vertices

vn -0.9885 -0.0000 0.1510
vn -0.9997 -0.0000 -0.0233
vn -1.0000 -0.0000 0.0055
vn -0.9939 -0.0000 -0.1104
vn -1.0000 -0.0000 -0.0072
vn -0.9941 -0.0000 0.1088
vn -0.9958 -0.0000 -0.0914
vn -0.9999 -0.0000 0.0152
vn -0.9967 -0.0000 -0.0815
vn -0.8173 -0.0000 -0.5762
vn -0.9933 -0.0000 -0.1155
vn -0.9532 -0.0000 -0.3022
vn -0.9844 -0.0000 0.1760
vn -0.9943 -0.0000 0.1065
vn -0.8276 -0.0000 0.5613
vn -0.9883 -0.0000 0.1524
vn -0.9916 -0.0000 -0.1290
# 17 vertex normals

vt 0.8237 0.0283 0.0000
vt 0.8217 1.0000 0.0000
vt 0.8045 0.9999 0.0000
vt 0.8066 0.0002 0.0000
vt 0.7888 0.0001 0.0000
vt 0.7868 0.9999 0.0000
vt 0.7679 0.9998 0.0000
vt 0.7700 0.0001 0.0000
vt 0.7527 0.0000 0.0000
vt 0.7506 0.9998 0.0000
vt 0.7319 0.9998 0.0000
vt 0.7339 0.0000 0.0000
vt 0.6966 0.0599 0.0000
vt 0.7029 0.0512 0.0000
vt 0.7010 0.9997 0.0000
vt 0.6947 0.9997 0.0000
vt 0.7178 0.0264 0.0000
vt 0.7158 0.9997 0.0000
vt 0.8443 0.0602 0.0000
vt 0.8424 1.0000 0.0000
vt 0.8363 1.0000 0.0000
vt 0.8382 0.0516 0.0000
# 22 texture coords

o SM_Banner
g SM_Banner
s 1
f 1/1/1 2/2/2 3/3/3 
f 3/3/3 4/4/4 1/1/1 
f 5/5/5 6/6/5 7/7/6 
f 7/7/6 8/8/6 5/5/5 
f 9/9/7 10/10/7 11/11/8 
f 11/11/8 12/12/9 9/9/7 
f 13/13/10 14/14/11 15/15/12 
f 15/15/12 16/16/10 13/13/10 
f 14/14/11 17/17/13 18/18/14 
f 18/18/14 15/15/12 14/14/11 
f 19/19/15 20/20/15 21/21/16 
f 21/21/16 22/22/17 19/19/15 
f 17/17/13 12/12/9 11/11/8 
f 11/11/8 18/18/14 17/17/13 
f 8/8/6 7/7/6 10/10/7 
f 10/10/7 9/9/7 8/8/6 
f 4/4/4 3/3/3 6/6/5 
f 6/6/5 5/5/5 4/4/4 
f 22/22/17 21/21/16 2/2/2 
f 2/2/2 1/1/1 22/22/17 
# 20 faces

