# 3ds Max Wavefront OBJ Exporter v0.99 - (c)2007 guruware
# File Created: 25.01.2025 16:06:52

#
# object SM_Cross_Simple
#

v  0.0977 0.1000 -0.0000
v  -0.0977 0.1000 -0.0000
v  -0.0977 1.7066 0.0000
v  0.0977 1.7066 0.0000
v  0.0141 0.1639 0.1422
v  0.0141 1.6427 0.1422
v  -0.0141 1.6427 0.1422
v  -0.0141 0.1639 0.1422
v  0.0977 1.7066 0.0776
v  0.0977 0.1000 0.0776
v  -0.0977 1.7066 0.0776
v  -0.0977 0.1000 0.0776
v  -0.4384 1.1705 -0.0000
v  -0.4384 1.3659 -0.0000
v  0.4384 1.3659 0.0000
v  0.4384 1.1705 0.0000
v  -0.3745 1.2541 0.1422
v  0.3745 1.2541 0.1422
v  0.3745 1.2823 0.1422
v  -0.3745 1.2823 0.1422
v  0.4384 1.1705 0.0776
v  -0.4384 1.1705 0.0776
v  0.4384 1.3659 0.0776
v  -0.4384 1.3659 0.0776
v  -0.3133 -0.0027 0.2947
v  -0.3133 -0.0027 -0.2947
v  0.3133 -0.0027 -0.2947
v  0.3133 -0.0027 0.2947
v  -0.3133 0.0995 0.2947
v  0.3133 0.0995 0.2947
v  0.3133 0.0995 -0.2947
v  -0.3133 0.0995 -0.2947
# 32 vertices

vn 0.0000 0.0000 -1.0000
vn 0.0000 -0.0000 1.0000
vn 1.0000 0.0000 -0.0000
vn 0.0000 1.0000 -0.0000
vn -1.0000 -0.0000 -0.0000
vn 0.0000 -1.0000 -0.0000
vn 0.6114 -0.0000 0.7913
vn 0.0000 0.7114 0.7028
vn -0.6114 -0.0000 0.7913
vn 0.0000 -0.7114 0.7028
vn -0.0000 0.0000 1.0000
vn -0.0000 1.0000 -0.0000
vn -1.0000 0.0000 -0.0000
vn 0.0000 -0.6114 0.7913
vn 0.7114 -0.0000 0.7028
vn 0.7114 0.0000 0.7028
vn -0.0000 0.6114 0.7913
vn -0.7114 -0.0000 0.7028
vn -0.7114 0.0000 0.7028
vn 0.0000 0.0000 1.0000
# 20 vertex normals

vt 0.3130 0.0000 0.0000
vt 0.4101 0.0000 0.0000
vt 0.4101 0.7976 0.0000
vt 0.3130 0.7976 0.0000
vt 1.0000 0.0000 0.0000
vt 1.0000 0.7342 0.0000
vt 0.9860 0.7342 0.0000
vt 0.9860 0.0000 0.0000
vt 0.4112 0.9032 0.0000
vt 0.4112 0.0000 0.0000
vt 0.4548 0.0000 0.0000
vt 0.4548 0.9032 0.0000
vt 0.8366 0.1550 0.0000
vt 0.8366 0.0519 0.0000
vt 0.8775 0.0519 0.0000
vt 0.8775 0.1550 0.0000
vt 0.0000 0.9044 0.0000
vt 0.9032 0.9044 0.0000
vt 0.9032 0.9480 0.0000
vt 0.0000 0.9480 0.0000
vt 0.8353 0.0519 0.0000
vt 0.8353 0.1550 0.0000
vt 0.7944 0.1550 0.0000
vt 0.7944 0.0519 0.0000
vt 0.4912 0.0359 0.0000
vt 0.4912 0.8673 0.0000
vt 0.9117 0.0960 0.0000
vt 0.9117 0.1109 0.0000
vt 0.8673 0.9843 0.0000
vt 0.0359 0.9843 0.0000
vt 0.7602 0.1109 0.0000
vt 0.7602 0.0960 0.0000
vt 0.5486 0.5837 0.0000
vt 0.5486 0.4867 0.0000
vt 0.9839 0.4867 0.0000
vt 0.9839 0.5837 0.0000
vt 0.5549 0.0354 0.0000
vt 0.5549 0.4502 0.0000
vt 0.5393 0.4502 0.0000
vt 0.5393 0.0354 0.0000
vt 0.4930 0.5848 0.0000
vt 0.9283 0.5848 0.0000
vt 0.9283 0.6233 0.0000
vt 0.4930 0.6233 0.0000
vt 0.9849 0.1827 0.0000
vt 0.8879 0.1827 0.0000
vt 0.8879 0.1442 0.0000
vt 0.9849 0.1442 0.0000
vt 0.9839 0.6629 0.0000
vt 0.5486 0.6629 0.0000
vt 0.5486 0.6244 0.0000
vt 0.9839 0.6244 0.0000
vt 0.7602 0.2532 0.0000
vt 0.7602 0.1562 0.0000
vt 0.7987 0.1562 0.0000
vt 0.7987 0.2532 0.0000
vt 0.6013 0.0000 0.0000
vt 0.6013 0.4856 0.0000
vt 0.4930 0.4856 0.0000
vt 0.4930 0.0000 0.0000
vt 0.0000 0.2926 0.0000
vt 0.0000 0.0000 0.0000
vt 0.3110 0.0000 0.0000
vt 0.3110 0.2926 0.0000
vt 0.0000 0.2937 0.0000
vt 0.3110 0.2937 0.0000
vt 0.3110 0.5862 0.0000
vt 0.0000 0.5862 0.0000
vt 0.6539 0.0000 0.0000
vt 0.6539 0.3110 0.0000
vt 0.6032 0.3110 0.0000
vt 0.6032 0.0000 0.0000
vt 0.7586 0.0519 0.0000
vt 0.7586 0.3444 0.0000
vt 0.7079 0.3444 0.0000
vt 0.7079 0.0519 0.0000
vt 0.6555 0.0000 0.0000
vt 0.9666 0.0000 0.0000
vt 0.9666 0.0507 0.0000
vt 0.6555 0.0507 0.0000
vt 0.7063 0.0519 0.0000
vt 0.7063 0.3444 0.0000
vt 0.6555 0.3444 0.0000
vt 0.6555 0.0519 0.0000
# 84 texture coords

o SM_Cross_Simple
g SM_Cross_Simple
s 1
f 1/1/1 2/2/1 3/3/1 
f 3/3/1 4/4/1 1/1/1 
f 5/5/2 6/6/2 7/7/2 
f 7/7/2 8/8/2 5/5/2 
s 2
f 1/9/3 4/10/3 9/11/3 
f 9/11/3 10/12/3 1/9/3 
s 4
f 4/13/4 3/14/4 11/15/4 
f 11/15/4 9/16/4 4/13/4 
s 2
f 3/17/5 2/18/5 12/19/5 
f 12/19/5 11/20/5 3/17/5 
s 4
f 2/21/6 1/22/6 10/23/6 
f 10/23/6 12/24/6 2/21/6 
s 8
f 10/12/7 9/11/7 6/25/7 
f 6/25/7 5/26/7 10/12/7 
s 16
f 9/16/8 11/15/8 7/27/8 
f 7/27/8 6/28/8 9/16/8 
s 8
f 11/20/9 12/19/9 8/29/9 
f 8/29/9 7/30/9 11/20/9 
s 16
f 12/24/10 10/23/10 5/31/10 
f 5/31/10 8/32/10 12/24/10 
s 1
f 13/33/1 14/34/1 15/35/1 
f 15/35/1 16/36/1 13/33/1 
f 17/37/11 18/38/11 19/39/11 
f 19/39/11 20/40/11 17/37/11 
s 2
f 13/41/6 16/42/6 21/43/6 
f 21/43/6 22/44/6 13/41/6 
s 4
f 16/45/3 15/46/3 23/47/3 
f 23/47/3 21/48/3 16/45/3 
s 2
f 15/49/12 14/50/12 24/51/12 
f 24/51/12 23/52/12 15/49/12 
s 4
f 14/53/13 13/54/13 22/55/13 
f 22/55/13 24/56/13 14/53/13 
s 8
f 22/57/14 21/58/14 18/38/14 
f 18/38/14 17/37/14 22/57/14 
s 16
f 21/58/15 23/59/15 19/39/15 
f 19/39/15 18/38/16 21/58/15 
s 8
f 23/59/17 24/60/17 20/40/17 
f 20/40/17 19/39/17 23/59/17 
s 16
f 24/60/18 22/57/18 17/37/18 
f 17/37/18 20/40/19 24/60/18 
s 2
f 25/61/6 26/62/6 27/63/6 
f 27/63/6 28/64/6 25/61/6 
s 4
f 29/65/4 30/66/4 31/67/4 
f 31/67/4 32/68/4 29/65/4 
s 8
f 25/69/20 28/70/20 30/71/20 
f 30/71/20 29/72/20 25/69/20 
s 16
f 28/73/3 27/74/3 31/75/3 
f 31/75/3 30/76/3 28/73/3 
s 32
f 27/77/1 26/78/1 32/79/1 
f 32/79/1 31/80/1 27/77/1 
s 64
f 26/81/13 25/82/13 29/83/13 
f 29/83/13 32/84/13 26/81/13 
# 52 faces

