# 3ds Max Wavefront OBJ Exporter v0.99 - (c)2007 guruware
# File Created: 16.02.2025 17:31:41

#
# object SM_FX_Godray
#

v  0.0000 -2.6547 -0.4603
v  0.0000 -2.6547 -0.2302
v  -0.0000 0.0000 -0.1004
v  -0.0000 0.0000 -0.2008
v  0.0000 -2.6547 -0.0000
v  -0.0000 0.0000 -0.0000
v  0.0000 -2.6547 0.2302
v  -0.0000 0.0000 0.1004
v  0.0000 -2.6547 0.4603
v  -0.0000 0.0000 0.2008
# 10 vertices

vn -1.0000 -0.0000 -0.0000
# 1 vertex normals

vt 0.0000 0.0098 0.0000
vt 0.0861 0.0073 0.0000
vt 0.1628 0.9989 0.0000
vt 0.1252 1.0000 0.0000
vt 0.1722 0.0049 0.0000
vt 0.2003 0.9979 0.0000
vt 0.2583 0.0024 0.0000
vt 0.2379 0.9968 0.0000
vt 0.3444 0.0000 0.0000
vt 0.2754 0.9957 0.0000
# 10 texture coords

o SM_FX_Godray
g SM_FX_Godray
s 1
f 1/1/1 2/2/1 3/3/1 
f 3/3/1 4/4/1 1/1/1 
f 2/2/1 5/5/1 6/6/1 
f 6/6/1 3/3/1 2/2/1 
f 5/5/1 7/7/1 8/8/1 
f 8/8/1 6/6/1 5/5/1 
f 7/7/1 9/9/1 10/10/1 
f 10/10/1 8/8/1 7/7/1 
# 8 faces

