# 3ds Max Wavefront OBJ Exporter v0.99 - (c)2007 guruware
# File Created: 28.01.2025 00:03:38

#
# object SM_Natural_Rock_B
#

v  0.8714 0.0000 -1.0441
v  0.5274 0.0000 0.9066
v  -0.6418 0.0000 0.7004
v  -0.2979 0.0000 -1.2503
v  -0.3698 0.6625 -0.8425
v  -0.4055 0.6973 -0.6397
v  0.3559 0.6973 -0.5055
v  0.3916 0.6625 -0.7082
v  -0.5699 0.6641 0.2926
v  -0.6418 0.2483 0.7004
v  0.1196 0.2483 0.8347
v  0.1915 0.6641 0.4269
v  0.2946 0.2483 -1.1458
v  -0.2979 0.2483 -1.2503
v  -0.5027 0.7402 0.2756
v  0.1910 0.7402 0.3979
v  0.3159 0.8082 -0.3103
v  -0.3778 0.8082 -0.4326
v  0.3498 0.7734 -0.5024
v  -0.3439 0.7734 -0.6247
v  -0.6418 0.1361 0.7004
v  -0.8825 0.1361 0.6580
v  -0.8825 0.0000 0.6580
v  -0.4413 0.7320 -0.4369
v  -0.8411 0.5687 -0.5074
v  -0.9697 0.5008 0.2221
v  -0.8053 0.5339 -0.7102
v  -0.7696 0.4992 -0.9130
v  -0.2979 0.1361 -1.2503
v  -0.5385 0.1361 -1.2927
v  -0.5385 0.2483 -1.2927
v  -0.7672 0.2736 -0.9265
v  -0.8049 0.2926 -0.7124
v  -0.8468 0.3117 -0.4750
v  -0.9672 0.1559 0.2076
v  -0.8825 0.2483 0.6580
v  -0.5385 0.0000 -1.2927
v  -0.9129 0.2736 -0.9522
v  -0.9100 0.0000 -0.9687
v  -0.9502 0.0000 -0.7407
v  -0.9507 0.2926 -0.7381
v  -0.9994 0.0000 -0.4614
v  -0.9925 0.3117 -0.5007
v  -1.1098 0.0000 0.1643
v  -1.1129 0.1559 0.1819
v  0.5607 0.1338 -1.0989
v  -0.9640 0.0000 0.1900
v  0.3077 0.1338 0.8679
v  0.7429 0.3179 -0.3152
v  0.6291 0.2499 0.3298
v  0.7712 0.2831 -0.4758
v  0.7995 0.2483 -0.6363
v  0.3836 0.7386 -0.6945
v  0.5198 0.5824 -0.4914
v  0.5504 0.5476 -0.6651
v  0.3934 0.4730 0.3821
v  0.5798 0.4714 -0.6750
v  0.3708 0.5492 0.3535
v  0.4892 0.6171 -0.3178
v  0.5474 0.5062 -0.4918
v  0.3020 0.3245 -1.1073
v  0.5379 0.2099 -1.0657
v  0.5151 0.5410 -0.3085
v  -0.8045 0.0000 -0.7150
v  -0.7643 0.0000 -0.9430
v  -0.8537 0.0000 -0.4357
v  -0.5864 0.1361 -1.3012
v  -0.5864 0.0000 -1.3012
# 68 vertices

vn 0.0000 -1.0000 -0.0000
vn -0.1600 0.9678 -0.1942
vn -0.2180 0.9548 -0.2022
vn 0.0289 0.9860 -0.1640
vn -0.2452 0.7002 0.6705
vn -0.1770 0.7497 0.6377
vn -0.1230 0.7058 0.6977
vn 0.0197 0.7322 -0.6808
vn 0.1228 0.7071 -0.6964
vn -0.0163 0.9956 0.0927
vn 0.0071 0.9992 -0.0405
vn 0.0305 0.9845 -0.1728
vn -0.1627 0.3495 0.9227
vn 0.2628 0.3542 0.8975
vn 0.0862 0.3543 0.9312
vn 0.1734 0.0533 -0.9834
vn -0.1736 -0.0000 0.9848
vn -0.1736 0.0000 0.9848
vn -0.3809 0.9244 0.0189
vn -0.3614 0.9272 -0.0984
vn -0.3610 0.9271 -0.1005
vn -0.3362 0.9166 -0.2165
vn 0.1736 -0.0000 -0.9848
vn 0.1736 0.0000 -0.9848
vn -0.9518 0.0083 -0.3065
vn -0.9223 0.0117 -0.3864
vn -0.9848 0.0000 -0.1736
vn -0.9848 -0.0000 -0.1736
vn -0.9996 -0.0062 -0.0284
vn -0.9968 -0.0190 0.0776
vn -0.9133 0.0148 -0.4069
vn -0.8870 0.0151 -0.4615
vn 0.2384 0.1616 -0.9576
vn 0.2238 0.1122 -0.9682
vn 1.0000 0.0000 -0.0000
vn -0.9830 -0.0326 0.1808
vn -0.9851 0.0000 0.1717
vn -0.9838 -0.0041 0.1792
vn 0.9848 -0.0000 0.1736
vn 0.9848 0.0000 0.1736
vn 0.7491 0.6624 0.0073
vn 0.7446 0.6674 0.0077
vn 0.7490 0.6626 0.0023
vn 0.7532 0.6578 0.0011
vn 0.6566 0.6744 0.3378
vn 0.6409 0.6123 0.4629
vn 0.4328 0.7467 0.5051
vn 0.4159 0.8054 0.4223
vn 0.5135 0.7328 -0.4465
vn 0.6641 0.5699 -0.4839
vn 0.5883 0.6600 -0.4671
vn 0.4205 0.8060 -0.4166
vn 0.7388 0.6643 0.1133
vn 0.7365 0.6486 0.1921
vn 0.7352 0.6499 0.1927
vn 0.7415 0.6650 0.0890
vn 0.7097 0.7041 -0.0238
vn 0.7145 0.6992 -0.0255
vn 0.7089 0.7052 -0.0145
vn 0.7038 0.7103 -0.0139
vn 0.6091 0.4992 0.6163
vn 0.4176 0.6876 0.5940
vn 0.4958 0.6308 -0.5968
vn 0.6458 0.4714 -0.6006
vn 0.5981 0.5283 -0.6026
vn 0.4348 0.6818 -0.5883
vn 0.7019 0.7083 0.0745
vn 0.6987 0.7079 0.1037
vn 0.5642 0.4313 0.7040
vn 0.5600 0.4171 0.7158
vn 0.9179 0.3447 0.1967
vn 0.9302 0.3359 0.1481
vn 0.9306 0.3353 0.1471
vn 0.9176 0.3454 0.1968
vn 0.9352 0.3401 0.0988
vn 0.9359 0.3380 0.0989
vn 0.9059 0.3756 -0.1957
vn 0.9316 0.3619 -0.0343
vn 0.8370 0.4090 -0.3635
vn 0.8382 0.4075 -0.3626
vn 0.3314 0.4123 -0.8486
vn 0.3667 0.4619 -0.8075
vn -0.9715 -0.0387 0.2337
vn -0.9719 -0.1364 0.1916
vn -0.9948 -0.0963 -0.0335
vn -0.9798 -0.0063 0.2001
vn -0.9843 -0.0726 -0.1611
vn -0.9843 -0.0731 -0.1609
vn -0.7325 0.6361 -0.2425
vn -0.7540 0.6385 -0.1544
vn -0.7524 0.6391 -0.1592
vn -0.7296 0.6388 -0.2443
vn -0.7554 0.6513 -0.0725
vn -0.7560 0.6506 -0.0726
vn -0.3161 0.7323 0.6031
vn -0.0904 0.8539 0.5125
vn -0.0034 0.7367 -0.6763
vn -0.1997 0.7573 -0.6217
vn -0.8480 0.0050 -0.5299
vn -0.8482 0.0000 -0.5297
vn -0.9826 -0.0052 0.1858
vn -0.7188 0.0103 -0.6952
vn -0.7167 0.0000 -0.6974
vn -0.1725 -0.1140 0.9784
vn -0.0381 0.9757 0.2159
vn -0.0123 0.9975 0.0699
vn 0.0144 0.9965 -0.0818
vn 0.0382 0.9755 -0.2166
vn 0.0316 0.9833 -0.1792
vn 0.0564 0.9458 -0.3198
# 110 vertex normals

vt 0.3635 0.5649 0.0000
vt 0.7791 0.5649 0.0000
vt 0.7791 0.8141 0.0000
vt 0.3635 0.8141 0.0000
vt 0.2455 0.4236 0.0000
vt 0.2382 0.3806 0.0000
vt 0.3841 0.3586 0.0000
vt 0.3972 0.3908 0.0000
vt 0.2146 0.1783 0.0000
vt 0.1966 0.0605 0.0000
vt 0.3879 0.0510 0.0000
vt 0.3725 0.1633 0.0000
vt 0.4107 0.5004 0.0000
vt 0.2594 0.5397 0.0000
vt 0.2316 0.1911 0.0000
vt 0.3672 0.1767 0.0000
vt 0.3834 0.3110 0.0000
vt 0.2477 0.3310 0.0000
vt 0.3893 0.3463 0.0000
vt 0.2531 0.3656 0.0000
vt 0.1915 0.0375 0.0000
vt 0.1314 0.0644 0.0000
vt 0.1148 0.0420 0.0000
vt 0.1873 0.0094 0.0000
vt 0.2294 0.3340 0.0000
vt 0.1457 0.3434 0.0000
vt 0.1299 0.1842 0.0000
vt 0.1524 0.3874 0.0000
vt 0.1613 0.4299 0.0000
vt 0.2598 0.5639 0.0000
vt 0.1904 0.5531 0.0000
vt 0.2022 0.5344 0.0000
vt 0.1297 0.4563 0.0000
vt 0.1093 0.4043 0.0000
vt 0.0936 0.3456 0.0000
vt 0.0626 0.1710 0.0000
vt 0.1438 0.0811 0.0000
vt 0.2634 0.5924 0.0000
vt 0.1832 0.5803 0.0000
vt 0.0979 0.4568 0.0000
vt 0.0594 0.4952 0.0000
vt 0.0227 0.4349 0.0000
vt 0.0803 0.4094 0.0000
vt 0.0000 0.3542 0.0000
vt 0.0648 0.3539 0.0000
vt 0.0050 0.1844 0.0000
vt 0.0347 0.1863 0.0000
vt 0.4894 0.5001 0.0000
vt 0.5881 0.4981 0.0000
vt 0.0324 0.1501 0.0000
vt 0.4403 0.0290 0.0000
vt 0.5074 0.0000 0.0000
vt 0.5037 0.3172 0.0000
vt 0.4886 0.1575 0.0000
vt 0.5161 0.3572 0.0000
vt 0.5280 0.3970 0.0000
vt 0.4052 0.3797 0.0000
vt 0.4421 0.3469 0.0000
vt 0.4515 0.3831 0.0000
vt 0.4275 0.1604 0.0000
vt 0.4657 0.3904 0.0000
vt 0.4149 0.1724 0.0000
vt 0.4325 0.3127 0.0000
vt 0.4579 0.3496 0.0000
vt 0.4150 0.4858 0.0000
vt 0.4759 0.4856 0.0000
vt 0.4472 0.3101 0.0000
vt 0.4926 0.8992 0.0000
vt 0.4440 0.8992 0.0000
vt 0.3635 0.8653 0.0000
vt 0.5521 0.8992 0.0000
vt 0.7791 0.8653 0.0000
vt 0.6854 0.8992 0.0000
vt 0.1786 0.5516 0.0000
vt 0.1666 0.5758 0.0000
vt 0.4440 0.9303 0.0000
vt 0.3635 0.8755 0.0000
vt 0.4926 0.9303 0.0000
vt 0.5521 0.9303 0.0000
vt 0.6854 0.9303 0.0000
# 80 texture coords

o SM_Natural_Rock_B
g SM_Natural_Rock_B
s 1
f 1/1/1 2/2/1 3/3/1 
f 3/3/1 4/4/1 1/1/1 
f 5/5/2 6/6/3 7/7/4 
f 7/7/4 8/8/4 5/5/2 
s 8
f 9/9/5 10/10/6 11/11/7 
f 11/11/7 12/12/7 9/9/5 
f 5/5/8 8/8/9 13/13/9 
f 13/13/9 14/14/9 5/5/8 
s 1
f 15/15/10 16/16/10 17/17/11 
f 17/17/11 18/18/11 15/15/10 
f 18/18/11 17/17/11 19/19/12 
f 19/19/12 20/20/12 18/18/11 
s 2
f 9/9/13 12/12/14 16/16/15 
f 16/16/15 15/15/13 9/9/13 
s off
f 7/7/16 6/6/16 20/20/16 
f 20/20/16 19/19/16 7/7/16 
s 2
f 21/21/17 22/22/18 23/23/18 
f 23/23/18 3/24/18 21/21/17 
s 1
f 9/9/19 24/25/20 25/26/21 
f 25/26/21 26/27/19 9/9/19 
f 24/25/20 6/6/3 27/28/22 
f 27/28/22 25/26/21 24/25/20 
f 6/6/3 5/5/2 28/29/22 
f 28/29/22 27/28/22 6/6/3 
s 2
f 29/30/23 30/31/24 31/32/24 
f 31/32/24 14/14/24 29/30/23 
s 4
f 28/29/25 32/33/26 33/34/27 
f 33/34/27 27/28/28 28/29/25 
f 27/28/28 33/34/27 34/35/28 
f 34/35/28 25/26/28 27/28/28 
f 26/27/29 25/26/28 34/35/28 
f 34/35/28 35/36/30 26/27/29 
s 2
f 10/10/17 36/37/18 22/22/18 
f 22/22/18 21/21/17 10/10/17 
f 4/38/24 37/39/24 30/31/24 
f 30/31/24 29/30/23 4/38/24 
s 4
f 38/40/31 39/41/32 40/42/28 
f 40/42/28 41/43/28 38/40/31 
f 40/42/28 42/44/28 43/45/28 
f 43/45/28 41/43/28 40/42/28 
f 42/44/28 44/46/27 45/47/27 
f 45/47/27 43/45/28 42/44/28 
s 2
f 14/14/24 13/13/33 46/48/34 
f 29/30/23 14/14/24 46/48/34 
f 46/48/34 1/49/35 1/49/23 
f 29/30/23 46/48/34 1/49/23 
f 29/30/23 1/49/23 4/38/24 
s 4
f 47/50/36 23/23/37 22/22/38 
f 22/22/38 35/36/30 47/50/36 
s 2
f 48/51/17 11/11/17 10/10/17 
f 48/51/17 10/10/17 21/21/17 
f 21/21/17 3/24/18 2/52/17 
f 48/51/17 21/21/17 2/52/17 
f 48/51/17 2/52/17 2/52/35 
s 4
f 49/53/39 50/54/40 2/52/40 
f 49/53/39 2/52/40 2/52/39 
f 49/53/39 2/52/39 1/49/39 
f 51/55/39 49/53/39 1/49/39 
f 52/56/39 51/55/39 1/49/39 
f 52/56/39 1/49/39 1/49/35 
s 16
f 53/57/41 19/19/42 54/58/43 
f 54/58/43 55/59/44 53/57/41 
f 50/54/45 56/60/46 48/51/47 
f 48/51/47 2/52/48 50/54/45 
s 8
f 46/48/49 57/61/50 52/56/51 
f 52/56/51 1/49/52 46/48/49 
s 16
f 17/17/53 16/16/54 58/62/55 
f 58/62/55 59/63/56 17/17/53 
f 19/19/42 17/17/53 59/63/56 
f 59/63/56 54/58/43 19/19/42 
f 51/55/57 52/56/58 57/61/59 
f 57/61/59 60/64/60 51/55/57 
f 56/60/46 12/12/61 11/11/62 
f 11/11/62 48/51/47 56/60/46 
s 8
f 61/65/63 53/57/64 55/59/65 
f 55/59/65 62/66/66 61/65/63 
s 16
f 50/54/45 49/53/67 63/67/68 
f 63/67/68 56/60/46 50/54/45 
f 49/53/67 51/55/57 60/64/60 
f 60/64/60 63/67/68 49/53/67 
s 2
f 12/12/14 56/60/69 58/62/70 
f 58/62/70 16/16/15 12/12/14 
s 1
f 56/60/71 63/67/72 59/63/73 
f 59/63/73 58/62/74 56/60/71 
f 63/67/72 60/64/75 54/58/76 
f 54/58/76 59/63/73 63/67/72 
f 60/64/75 57/61/77 55/59/78 
f 55/59/78 54/58/76 60/64/75 
f 57/61/77 46/48/79 62/66/80 
f 62/66/80 55/59/78 57/61/77 
s 2
f 46/48/34 13/13/33 61/65/81 
f 61/65/81 62/66/82 46/48/34 
s 4
f 13/13/83 8/8/84 53/57/85 
f 53/57/85 61/65/86 13/13/83 
f 8/8/84 7/7/87 19/19/88 
f 19/19/88 53/57/85 8/8/84 
f 6/6/89 24/25/90 18/18/91 
f 18/18/91 20/20/92 6/6/89 
f 24/25/90 9/9/93 15/15/94 
f 15/15/94 18/18/91 24/25/90 
s 1
f 64/68/1 65/69/1 37/70/1 
f 66/71/1 64/68/1 37/70/1 
f 37/70/1 4/4/1 3/3/1 
f 66/71/1 37/70/1 3/3/1 
f 66/71/1 3/3/1 23/72/1 
f 66/71/1 23/72/1 47/73/1 
s 8
f 10/10/6 9/9/5 26/27/95 
f 26/27/95 36/37/96 10/10/6 
f 5/5/8 14/14/9 31/32/97 
f 31/32/97 28/29/98 5/5/8 
s 4
f 31/32/99 30/31/100 32/33/26 
f 32/33/26 28/29/25 31/32/99 
f 36/37/101 26/27/29 35/36/30 
f 35/36/30 22/22/38 36/37/101 
f 67/74/102 68/75/103 39/41/32 
f 39/41/32 38/40/31 67/74/102 
s 1
f 37/70/1 65/69/1 39/76/1 
f 39/76/1 68/77/1 37/70/1 
f 65/69/1 64/68/1 40/78/1 
f 40/78/1 39/76/1 65/69/1 
f 64/68/1 66/71/1 42/79/1 
f 42/79/1 40/78/1 64/68/1 
f 66/71/1 47/73/1 44/80/1 
f 44/80/1 42/79/1 66/71/1 
s off
f 47/50/104 35/36/104 45/47/104 
f 45/47/104 44/46/104 47/50/104 
s 1
f 35/36/105 34/35/106 43/45/106 
f 43/45/106 45/47/105 35/36/105 
f 34/35/106 33/34/107 41/43/107 
f 41/43/107 43/45/106 34/35/106 
f 33/34/107 32/33/108 38/40/109 
f 38/40/109 41/43/107 33/34/107 
f 32/33/108 30/31/110 67/74/110 
f 67/74/110 38/40/109 32/33/108 
s 2
f 30/31/24 37/39/24 68/75/24 
f 68/75/24 67/74/24 30/31/24 
# 136 faces

