# 3ds Max Wavefront OBJ Exporter v0.99 - (c)2007 guruware
# File Created: 26.01.2025 18:14:27

#
# object SM_Wall_Tall_Inset
#

v  0.0000 0.0904 0.0904
v  -0.0000 0.0904 3.9096
v  -0.1250 0.0904 3.9096
v  -0.1250 0.0904 0.0904
v  -0.1250 7.9096 3.9096
v  -0.0000 7.9096 3.9096
v  0.0000 7.9096 0.0904
v  -0.1250 7.9096 0.0904
v  0.1250 0.0000 4.0000
v  0.1250 0.0000 -0.0000
v  0.1250 8.0000 -0.0000
v  0.1250 8.0000 4.0000
v  0.0000 0.0000 -0.0000
v  0.0000 8.0000 -0.0000
v  -0.0000 0.0000 4.0000
v  -0.0000 8.0000 4.0000
# 16 vertices

vn 0.0000 -1.0000 -0.0000
vn 0.0000 1.0000 -0.0000
vn -1.0000 0.0000 -0.0000
vn 0.0000 0.0000 1.0000
vn 0.0000 0.0000 -1.0000
vn 1.0000 0.0000 -0.0000
vn 1.0000 0.0000 0.0000
vn -1.0000 -0.0000 -0.0000
# 8 vertex normals

vt 0.5000 0.9774 0.0914
vt 0.5000 0.0226 0.0914
vt 0.5313 0.0226 0.0914
vt 0.5312 0.9774 0.0914
vt 0.4687 0.0226 2.0462
vt 0.5000 0.0226 2.0462
vt 0.5000 0.9774 2.0462
vt 0.4688 0.9774 2.0462
vt 0.0226 0.0914 0.4688
vt 0.9774 0.0914 0.4687
vt 0.9774 2.0462 0.4687
vt 0.0226 2.0462 0.4688
vt 0.5000 0.0914 0.0226
vt 0.5000 2.0462 0.0226
vt 0.4687 2.0462 0.0226
vt 0.4687 0.0914 0.0226
vt 0.5312 0.0914 0.9774
vt 0.5312 2.0462 0.9774
vt 0.5000 2.0462 0.9774
vt 0.5000 0.0914 0.9774
vt 0.0000 0.0688 0.5312
vt 1.0000 0.0688 0.5313
vt 1.0000 2.0688 0.5313
vt 0.0000 2.0688 0.5312
vt 0.5000 0.0688 1.0000
vt 0.5000 2.0688 1.0000
vt 0.4687 2.0688 1.0000
vt 0.4687 0.0688 1.0000
vt 0.4687 1.0000 0.0688
vt 0.4688 0.0000 0.0688
vt 0.5000 0.0000 0.0688
vt 0.5000 1.0000 0.0688
vt 0.5312 0.0000 2.0688
vt 0.5313 1.0000 2.0688
vt 0.5000 1.0000 2.0688
vt 0.5000 0.0000 2.0688
vt 0.5312 0.0688 0.0000
vt 0.5312 2.0688 0.0000
vt 0.5000 2.0688 0.0000
vt 0.5000 0.0688 0.0000
vt 1.0000 0.0688 0.5000
vt 1.0000 2.0688 0.5000
vt 0.9774 2.0462 0.5000
vt 0.9774 0.0914 0.5000
vt 0.0000 2.0688 0.5000
vt 0.0226 2.0462 0.5000
vt 0.0000 0.0688 0.5000
vt 0.0226 0.0914 0.5000
# 48 texture coords

o SM_Wall_Tall_Inset
g SM_Wall_Tall_Inset
s off
f 1/1/1 2/2/1 3/3/1 
f 3/3/1 4/4/1 1/1/1 
f 5/5/2 6/6/2 7/7/2 
f 7/7/2 8/8/2 5/5/2 
f 4/9/3 3/10/3 5/11/3 
f 5/11/3 8/12/3 4/9/3 
f 2/13/4 6/14/4 5/15/4 
f 5/15/4 3/16/4 2/13/4 
f 4/17/5 8/18/5 7/19/5 
f 7/19/5 1/20/5 4/17/5 
f 9/21/6 10/22/7 11/23/7 
f 11/23/7 12/24/6 9/21/6 
f 13/25/5 14/26/5 11/27/5 
f 11/27/5 10/28/5 13/25/5 
f 10/29/1 9/30/1 15/31/1 
f 15/31/1 13/32/1 10/29/1 
f 12/33/2 11/34/2 14/35/2 
f 14/35/2 16/36/2 12/33/2 
f 9/37/4 12/38/4 16/39/4 
f 16/39/4 15/40/4 9/37/4 
s 1
f 15/41/3 16/42/8 6/43/8 
f 6/43/8 2/44/3 15/41/3 
f 16/42/8 14/45/8 7/46/8 
f 7/46/8 6/43/8 16/42/8 
f 14/45/8 13/47/3 1/48/3 
f 1/48/3 7/46/8 14/45/8 
f 13/47/3 15/41/3 2/44/3 
f 2/44/3 1/48/3 13/47/3 
# 28 faces

