# 3ds Max Wavefront OBJ Exporter v0.99 - (c)2007 guruware
# File Created: 25.01.2025 20:58:43

#
# object SM_Window_Arc
#

v  0.0000 0.0000 0.2831
v  -0.1250 0.0000 0.2831
v  -0.1250 0.0000 -0.0000
v  0.0000 0.0000 -0.0000
v  -0.1250 3.6585 0.2831
v  -0.1250 3.6585 -0.0000
v  0.0000 3.6585 -0.0000
v  0.0000 4.0000 0.2831
v  -0.1250 4.0000 0.2831
v  -0.1250 4.0000 2.0000
v  0.0000 4.0000 2.0000
v  -0.1250 3.6585 2.0000
v  -0.1250 4.0000 -0.0000
v  0.0000 4.0000 -0.0000
v  -0.1250 3.0721 1.4536
v  -0.1250 2.7215 1.1714
v  -0.1250 2.3007 0.9264
v  -0.1250 1.8545 0.7247
v  -0.1250 1.3823 0.5576
v  -0.1250 0.8993 0.4255
v  -0.1250 0.4540 0.3452
v  0.1250 0.0000 -0.0000
v  0.1250 0.0000 0.2831
v  0.1250 3.6585 -0.0000
v  0.1250 3.6585 0.2831
v  0.1250 4.0000 2.0000
v  0.1250 4.0000 0.2831
v  0.1250 3.6585 2.0000
v  0.1250 4.0000 -0.0000
v  0.1250 3.0721 1.4536
v  0.1250 2.7215 1.1714
v  0.1250 2.3007 0.9264
v  0.1250 1.8545 0.7247
v  0.1250 1.3823 0.5576
v  0.1250 0.8993 0.4255
v  0.1250 0.4540 0.3452
v  0.0000 0.0000 3.7169
v  0.0000 0.0000 4.0000
v  -0.1250 0.0000 4.0000
v  -0.1250 0.0000 3.7169
v  -0.1250 3.6585 4.0000
v  -0.1250 3.6585 3.7169
v  0.0000 3.6585 4.0000
v  0.0000 4.0000 3.7169
v  -0.1250 4.0000 3.7169
v  -0.1250 4.0000 4.0000
v  0.0000 4.0000 4.0000
v  -0.1250 3.0721 2.5464
v  -0.1250 2.7215 2.8286
v  -0.1250 2.3007 3.0736
v  -0.1250 1.8545 3.2753
v  -0.1250 1.3823 3.4424
v  -0.1250 0.8993 3.5745
v  -0.1250 0.4540 3.6548
v  0.1250 0.0000 3.7169
v  0.1250 0.0000 4.0000
v  0.1250 3.6585 3.7169
v  0.1250 3.6585 4.0000
v  0.1250 4.0000 3.7169
v  0.1250 4.0000 4.0000
v  0.1250 3.0721 2.5464
v  0.1250 2.7215 2.8286
v  0.1250 2.3007 3.0736
v  0.1250 1.8545 3.2753
v  0.1250 1.3823 3.4424
v  0.1250 0.8993 3.5745
v  0.1250 0.4540 3.6548
v  0.0000 2.7215 1.1714
v  0.0000 2.3007 0.9264
v  0.0000 0.4540 0.3452
v  0.0000 0.8993 0.4255
v  0.0000 2.3007 3.0736
v  0.0000 2.7215 2.8286
v  0.0000 0.8993 3.5745
v  0.0000 0.4540 3.6548
v  0.0000 3.6585 2.0000
v  0.0000 3.0721 1.4536
v  0.0000 3.0721 2.5464
v  0.0000 1.8545 3.2753
v  0.0000 1.3823 3.4424
v  0.0000 1.8545 0.7247
v  0.0000 1.3823 0.5576
# 82 vertices

vn 0.0000 -1.0000 -0.0000
vn -1.0000 0.0000 -0.0000
vn 0.0000 0.0000 -1.0000
vn 0.0000 1.0000 -0.0000
vn -1.0000 0.0000 0.0000
vn -1.0000 -0.0000 -0.0000
vn 1.0000 0.0000 -0.0000
vn 1.0000 0.0000 0.0000
vn 1.0000 -0.0000 -0.0000
vn 0.0000 0.0000 1.0000
vn -1.0000 -0.0000 0.0000
vn 1.0000 -0.0000 0.0000
vn 0.0000 -0.5032 0.8642
vn 0.0000 -0.1774 0.9841
vn 0.0000 -0.2208 0.9753
vn 0.0000 -0.5032 -0.8642
vn 0.0000 -0.2208 -0.9753
vn 0.0000 -0.1774 -0.9841
vn 0.0000 -0.6817 0.7316
vn 0.0000 -0.6817 -0.7316
vn 0.0000 -0.6270 -0.7790
vn 0.0000 -0.6270 0.7790
vn 0.0000 -0.4118 -0.9113
vn 0.0000 -0.3731 -0.9278
vn 0.0000 -0.2990 -0.9543
vn 0.0000 -0.4118 0.9113
vn 0.0000 -0.3731 0.9278
vn 0.0000 -0.2990 0.9543
vn 0.0000 -0.1356 0.9908
vn 0.0000 -0.1356 -0.9908
# 30 vertex normals

vt 0.5000 0.9292 0.0000
vt 0.5312 0.9292 0.0000
vt 0.5312 1.0000 0.0000
vt 0.5000 1.0000 0.0000
vt 0.0708 0.0000 0.4688
vt 0.0708 0.9146 0.4688
vt 0.0000 0.9146 0.4688
vt 0.0000 0.0000 0.4688
vt 0.5312 0.9146 1.0000
vt 0.5000 0.9146 1.0000
vt 0.5000 0.0000 1.0000
vt 0.5312 0.0000 1.0000
vt 0.5000 0.9292 1.0000
vt 0.4688 0.9292 1.0000
vt 0.4687 0.5000 1.0000
vt 0.5000 0.5000 1.0000
vt 0.5000 1.0000 0.4687
vt 0.0708 1.0000 0.4688
vt 0.5000 0.9146 0.4687
vt 0.5312 1.0000 1.0000
vt 0.5000 1.0000 1.0000
vt 0.3634 0.7680 0.4687
vt 0.2929 0.6804 0.4688
vt 0.2316 0.5752 0.4688
vt 0.1812 0.4636 0.4688
vt 0.1394 0.3456 0.4688
vt 0.1064 0.2248 0.4688
vt 0.0863 0.1135 0.4688
vt 0.4688 1.0000 1.0000
vt 0.0000 1.0000 0.4688
vt 0.4687 1.0000 0.0000
vt 0.4687 0.9292 0.0000
vt 0.9292 0.0000 0.5313
vt 1.0000 0.0000 0.5313
vt 1.0000 0.9146 0.5313
vt 0.9292 0.9146 0.5313
vt 0.4687 0.9146 1.0000
vt 0.4687 0.0000 1.0000
vt 0.5313 0.5000 1.0000
vt 0.5313 0.9292 1.0000
vt 0.5000 1.0000 0.5313
vt 0.5000 0.9146 0.5313
vt 0.9292 1.0000 0.5313
vt 0.4687 1.0000 1.0000
vt 0.6366 0.7680 0.5313
vt 0.7071 0.6804 0.5313
vt 0.7684 0.5752 0.5313
vt 0.8188 0.4636 0.5313
vt 0.8606 0.3456 0.5313
vt 0.8936 0.2248 0.5313
vt 0.9137 0.1135 0.5313
vt 0.5313 1.0000 1.0000
vt 1.0000 1.0000 0.5313
vt 0.5000 0.0708 0.0000
vt 0.5000 0.0000 0.0000
vt 0.5313 0.0000 0.0000
vt 0.5313 0.0708 0.0000
vt 0.9292 0.0000 0.4687
vt 1.0000 0.0000 0.4687
vt 1.0000 0.9146 0.4687
vt 0.9292 0.9146 0.4687
vt 0.4687 0.9146 0.0000
vt 0.4687 0.0000 0.0000
vt 0.5000 0.9146 0.0000
vt 0.5000 0.0708 1.0000
vt 0.4687 0.0708 1.0000
vt 0.9292 1.0000 0.4687
vt 0.6366 0.7680 0.4687
vt 0.7071 0.6804 0.4687
vt 0.7684 0.5752 0.4687
vt 0.8188 0.4636 0.4687
vt 0.8606 0.3456 0.4687
vt 0.8936 0.2248 0.4687
vt 0.9137 0.1135 0.4687
vt 1.0000 1.0000 0.4687
vt 0.4688 0.0708 0.0000
vt 0.4688 0.0000 0.0000
vt 0.0708 0.0000 0.5312
vt 0.0708 0.9146 0.5312
vt 0.0000 0.9146 0.5312
vt 0.0000 0.0000 0.5312
vt 0.5312 0.9146 0.0000
vt 0.5312 0.0000 0.0000
vt 0.5312 0.0708 1.0000
vt 0.0708 1.0000 0.5312
vt 0.3634 0.7680 0.5313
vt 0.2929 0.6804 0.5312
vt 0.2316 0.5752 0.5312
vt 0.1812 0.4636 0.5312
vt 0.1394 0.3456 0.5312
vt 0.1064 0.2248 0.5312
vt 0.0863 0.1135 0.5312
vt 0.0000 1.0000 0.5312
vt 0.5313 0.6804 0.7071
vt 0.5000 0.6804 0.7071
vt 0.5000 0.5752 0.7684
vt 0.5313 0.5752 0.7684
vt 0.5000 0.1135 0.9137
vt 0.5000 0.2248 0.8936
vt 0.4688 0.2248 0.8936
vt 0.4688 0.1135 0.9137
vt 0.4688 0.5752 0.2316
vt 0.5000 0.5752 0.2316
vt 0.5000 0.6804 0.2929
vt 0.4688 0.6804 0.2929
vt 0.5000 0.2248 0.1064
vt 0.5000 0.1135 0.0863
vt 0.5313 0.1135 0.0863
vt 0.5313 0.2248 0.1064
vt 0.5313 0.9146 0.5000
vt 0.5000 0.9146 0.5000
vt 0.5000 0.7680 0.6366
vt 0.5313 0.7680 0.6366
vt 0.4687 0.7680 0.3634
vt 0.5000 0.7680 0.3634
vt 0.4687 0.9146 0.5000
vt 0.5313 0.5752 0.2316
vt 0.5000 0.4636 0.1812
vt 0.5313 0.4636 0.1812
vt 0.5000 0.3456 0.1394
vt 0.5313 0.3456 0.1394
vt 0.5000 0.4636 0.8188
vt 0.5313 0.4636 0.8188
vt 0.5000 0.3456 0.8606
vt 0.5313 0.3456 0.8606
vt 0.5313 0.2248 0.8936
vt 0.4688 0.6804 0.7071
vt 0.4688 0.5752 0.7684
vt 0.5313 0.1135 0.9137
vt 0.5313 0.6804 0.2929
vt 0.4688 0.2248 0.1064
vt 0.4688 0.1135 0.0863
vt 0.4687 0.7680 0.6366
vt 0.5313 0.7680 0.3634
vt 0.4688 0.4636 0.1812
vt 0.4688 0.3456 0.1394
vt 0.4688 0.4636 0.8188
vt 0.4688 0.3456 0.8606
# 138 texture coords

o SM_Window_Arc
g SM_Window_Arc
s 1
f 1/1/1 2/2/1 3/3/1 
f 3/3/1 4/4/1 1/1/1 
s 2
f 2/5/2 5/6/2 6/7/2 
f 6/7/2 3/8/2 2/5/2 
s 4
f 6/9/3 7/10/3 4/11/3 
f 4/11/3 3/12/3 6/9/3 
s 1
f 8/13/4 9/14/4 10/15/4 
f 10/15/4 11/16/4 8/13/4 
s 2
f 10/17/2 9/18/2 5/6/2 
f 5/6/2 12/19/5 10/17/2 
s 4
f 13/20/3 14/21/3 7/10/3 
f 7/10/3 6/9/3 13/20/3 
s 2
f 15/22/2 12/19/5 5/6/2 
f 16/23/2 15/22/2 5/6/2 
f 17/24/6 16/23/2 5/6/2 
f 18/25/6 17/24/6 5/6/2 
f 19/26/6 18/25/6 5/6/2 
f 20/27/2 19/26/6 5/6/2 
f 21/28/2 20/27/2 5/6/2 
f 2/5/2 21/28/2 5/6/2 
s 1
f 14/21/4 13/29/4 9/14/4 
f 9/14/4 8/13/4 14/21/4 
s 2
f 13/30/2 6/7/2 5/6/2 
f 5/6/2 9/18/2 13/30/2 
s 1
f 1/1/1 4/4/1 22/31/1 
f 22/31/1 23/32/1 1/1/1 
s 2
f 23/33/7 22/34/7 24/35/7 
f 24/35/7 25/36/7 23/33/7 
s 4
f 24/37/3 22/38/3 4/11/3 
f 4/11/3 7/10/3 24/37/3 
s 1
f 8/13/4 11/16/4 26/39/4 
f 26/39/4 27/40/4 8/13/4 
s 2
f 26/41/7 28/42/8 25/36/7 
f 25/36/7 27/43/7 26/41/7 
s 4
f 29/44/3 24/37/3 7/10/3 
f 7/10/3 14/21/3 29/44/3 
s 2
f 25/36/7 28/42/8 30/45/7 
f 25/36/7 30/45/7 31/46/7 
f 25/36/7 31/46/7 32/47/9 
f 25/36/7 32/47/9 33/48/9 
f 25/36/7 33/48/9 34/49/9 
f 25/36/7 34/49/9 35/50/7 
f 25/36/7 35/50/7 36/51/7 
f 23/33/7 25/36/7 36/51/7 
s 1
f 14/21/4 8/13/4 27/40/4 
f 27/40/4 29/52/4 14/21/4 
s 2
f 29/53/7 27/43/7 25/36/7 
f 25/36/7 24/35/7 29/53/7 
s 1
f 37/54/1 38/55/1 39/56/1 
f 39/56/1 40/57/1 37/54/1 
s 2
f 40/58/5 39/59/5 41/60/5 
f 41/60/5 42/61/5 40/58/5 
s 4
f 41/62/10 39/63/10 38/55/10 
f 38/55/10 43/64/10 41/62/10 
s 1
f 44/65/4 11/16/4 10/15/4 
f 10/15/4 45/66/4 44/65/4 
s 2
f 10/17/2 12/19/5 42/61/5 
f 42/61/5 45/67/5 10/17/2 
s 4
f 46/31/10 41/62/10 43/64/10 
f 43/64/10 47/4/10 46/31/10 
s 2
f 42/61/5 12/19/5 48/68/5 
f 42/61/5 48/68/5 49/69/5 
f 42/61/5 49/69/5 50/70/11 
f 42/61/5 50/70/11 51/71/11 
f 42/61/5 51/71/11 52/72/11 
f 42/61/5 52/72/11 53/73/5 
f 42/61/5 53/73/5 54/74/5 
f 40/58/5 42/61/5 54/74/5 
s 1
f 47/11/4 44/65/4 45/66/4 
f 45/66/4 46/38/4 47/11/4 
s 2
f 46/75/5 45/67/5 42/61/5 
f 42/61/5 41/60/5 46/75/5 
s 1
f 37/54/1 55/76/1 56/77/1 
f 56/77/1 38/55/1 37/54/1 
s 2
f 55/78/8 57/79/8 58/80/8 
f 58/80/8 56/81/8 55/78/8 
s 4
f 58/82/10 43/64/10 38/55/10 
f 38/55/10 56/83/10 58/82/10 
s 1
f 44/65/4 59/84/4 26/39/4 
f 26/39/4 11/16/4 44/65/4 
s 2
f 26/41/7 59/85/8 57/79/8 
f 57/79/8 28/42/8 26/41/7 
s 4
f 60/3/10 47/4/10 43/64/10 
f 43/64/10 58/82/10 60/3/10 
s 2
f 61/86/8 28/42/8 57/79/8 
f 62/87/8 61/86/8 57/79/8 
f 63/88/12 62/87/8 57/79/8 
f 64/89/12 63/88/12 57/79/8 
f 65/90/12 64/89/12 57/79/8 
f 66/91/8 65/90/12 57/79/8 
f 67/92/8 66/91/8 57/79/8 
f 55/78/8 67/92/8 57/79/8 
s 1
f 47/11/4 60/12/4 59/84/4 
f 59/84/4 44/65/4 47/11/4 
s 2
f 60/93/8 58/80/8 57/79/8 
f 57/79/8 59/85/8 60/93/8 
s 1
f 31/94/13 68/95/13 69/96/13 
f 69/96/13 32/97/13 31/94/13 
s 8
f 70/98/14 71/99/15 20/100/15 
f 20/100/15 21/101/14 70/98/14 
s 1
f 63/102/16 72/103/16 73/104/16 
f 73/104/16 62/105/16 63/102/16 
s 16
f 74/106/17 75/107/18 54/108/18 
f 54/108/18 53/109/17 74/106/17 
s 1
f 28/110/19 76/111/19 77/112/19 
f 77/112/19 30/113/19 28/110/19 
s 4
f 61/114/20 78/115/20 76/111/20 
f 76/111/20 28/116/20 61/114/20 
s 8
f 62/105/21 73/104/21 78/115/21 
f 78/115/21 61/114/21 62/105/21 
s 4
f 30/113/22 77/112/22 68/95/22 
f 68/95/22 31/94/22 30/113/22 
s 16
f 50/117/23 72/103/23 79/118/24 
f 79/118/24 51/119/24 50/117/23 
f 51/119/24 79/118/24 80/120/25 
f 80/120/25 52/121/25 51/119/24 
f 52/121/25 80/120/25 74/106/17 
f 74/106/17 53/109/17 52/121/25 
s 8
f 32/97/26 69/96/26 81/122/27 
f 81/122/27 33/123/27 32/97/26 
f 33/123/27 81/122/27 82/124/28 
f 82/124/28 34/125/28 33/123/27 
f 34/125/28 82/124/28 71/99/15 
f 71/99/15 35/126/15 34/125/28 
s 1
f 16/127/13 17/128/13 69/96/13 
f 69/96/13 68/95/13 16/127/13 
s 8
f 36/129/14 35/126/15 71/99/15 
f 71/99/15 70/98/14 36/129/14 
s 1
f 50/117/16 49/130/16 73/104/16 
f 73/104/16 72/103/16 50/117/16 
s 16
f 66/131/17 67/132/18 75/107/18 
f 75/107/18 74/106/17 66/131/17 
s 1
f 12/116/19 15/133/19 77/112/19 
f 77/112/19 76/111/19 12/116/19 
s 4
f 48/134/20 12/110/20 76/111/20 
f 76/111/20 78/115/20 48/134/20 
s 8
f 49/130/21 48/134/21 78/115/21 
f 78/115/21 73/104/21 49/130/21 
s 4
f 15/133/22 16/127/22 68/95/22 
f 68/95/22 77/112/22 15/133/22 
s 16
f 63/102/23 64/135/24 79/118/24 
f 79/118/24 72/103/23 63/102/23 
f 64/135/24 65/136/25 80/120/25 
f 80/120/25 79/118/24 64/135/24 
f 65/136/25 66/131/17 74/106/17 
f 74/106/17 80/120/25 65/136/25 
s 8
f 17/128/26 18/137/27 81/122/27 
f 81/122/27 69/96/26 17/128/26 
f 18/137/27 19/138/28 82/124/28 
f 82/124/28 81/122/27 18/137/27 
f 19/138/28 20/100/15 71/99/15 
f 71/99/15 82/124/28 19/138/28 
s 32
f 1/1/29 70/98/29 21/101/29 
f 21/101/29 2/5/29 1/1/29 
f 1/1/29 23/32/29 36/51/29 
f 36/51/29 70/98/29 1/1/29 
s 64
f 40/57/30 54/74/30 75/107/30 
f 75/107/30 37/54/30 40/57/30 
f 75/107/30 67/132/30 55/78/30 
f 55/78/30 37/54/30 75/107/30 
# 160 faces

