# 3ds Max Wavefront OBJ Exporter v0.99 - (c)2007 guruware
# File Created: 26.01.2025 18:28:17

#
# object SM_Wall_Tall_Deco
#

v  -0.0705 1.7248 0.0000
v  0.0545 1.7248 -0.0000
v  0.0545 0.0000 -0.0000
v  -0.0705 0.0000 0.0000
v  -0.0705 6.7406 0.0000
v  0.0545 6.7406 -0.0000
v  -0.1955 0.0000 0.0904
v  -0.0705 0.0000 0.0904
v  -0.0705 0.0000 1.0771
v  -0.1955 0.0000 1.0771
v  -0.0705 8.0000 0.0904
v  -0.1955 8.0000 0.0904
v  -0.1955 8.0000 0.8028
v  -0.0705 8.0000 0.8028
v  -0.1955 1.7248 0.5761
v  -0.1955 1.7248 0.0904
v  0.0545 0.0000 0.0904
v  0.0545 0.0000 1.0771
v  0.0545 8.0000 0.0904
v  0.0545 8.0000 0.8028
v  -0.1955 6.7406 0.0904
v  -0.1955 6.7406 1.1685
v  -0.0705 8.0000 0.0000
v  0.0545 8.0000 -0.0000
v  -0.0705 1.7248 0.5761
v  -0.0705 6.7406 1.1685
v  -0.0705 0.0000 1.3219
v  -0.0705 1.7248 0.8815
v  -0.0705 6.5259 1.3468
v  0.1955 0.0000 1.3219
v  0.1955 1.7248 0.8815
v  0.1955 6.5259 1.3468
v  -0.0705 1.7248 0.0904
v  -0.0705 6.7406 0.0904
v  -0.1955 8.0000 3.1972
v  -0.0705 8.0000 3.1972
v  0.0545 8.0000 3.1972
v  -0.1955 6.7406 2.8315
v  -0.0705 6.7406 2.8315
v  -0.0705 6.5259 2.6532
v  -0.0705 1.7248 4.0000
v  -0.0705 0.0000 4.0000
v  0.0545 0.0000 4.0000
v  0.0545 1.7248 4.0000
v  -0.0705 6.7406 4.0000
v  0.0545 6.7406 4.0000
v  -0.1955 0.0000 3.9096
v  -0.1955 0.0000 2.9229
v  -0.0705 0.0000 2.9229
v  -0.0705 0.0000 3.9096
v  -0.0705 8.0000 3.9096
v  -0.1955 8.0000 3.9096
v  -0.1955 1.7248 3.4239
v  -0.1955 1.7248 3.9096
v  0.0545 0.0000 2.9229
v  0.0545 0.0000 3.9096
v  0.0545 8.0000 3.9096
v  -0.1955 6.7406 3.9096
v  -0.0705 8.0000 4.0000
v  0.0545 8.0000 4.0000
v  -0.0705 1.7248 3.4239
v  -0.0705 1.7248 3.1185
v  -0.0705 0.0000 2.6781
v  0.1955 1.7248 3.1185
v  0.1955 0.0000 2.6781
v  0.1955 6.5259 2.6532
v  -0.0705 1.7248 3.9096
v  -0.0705 6.7406 3.9096
v  0.6527 8.0000 0.8028
v  0.6527 8.0000 3.1972
v  0.6527 8.0000 3.9096
v  0.6527 8.0000 0.0904
v  0.6527 0.0000 1.3219
v  0.6527 0.0000 1.0771
v  0.6527 0.0000 0.0904
v  0.6527 0.0000 -0.0000
v  0.6527 0.0000 2.9229
v  0.6527 0.0000 2.6781
v  0.6527 0.0000 3.9096
v  0.6527 0.0000 4.0000
v  0.6527 8.0000 4.0000
v  0.6527 8.0000 -0.0000
v  0.6527 6.7406 -0.0000
v  0.6527 1.7248 -0.0000
v  0.6527 6.7406 4.0000
v  0.6527 1.7248 4.0000
v  0.6527 0.8172 0.4950
v  0.6527 6.9730 0.4950
v  0.6527 6.9730 3.5033
v  0.6527 0.8172 3.5033
# 90 vertices

vn -0.0000 0.0000 -1.0000
vn 0.0000 -1.0000 -0.0000
vn 0.0000 1.0000 -0.0000
vn -1.0000 0.0000 -0.0000
vn -1.0000 -0.0000 -0.0000
vn 0.0000 0.2790 0.9603
vn 0.0000 -0.1173 0.9931
vn -1.0000 0.0000 0.0000
vn 0.0000 0.2474 0.9689
vn 0.0000 -0.0965 0.9953
vn 0.0000 0.0000 -1.0000
vn 0.0000 0.0000 1.0000
vn -1.0000 -0.0000 0.0000
vn 0.0000 0.2790 -0.9603
vn 0.0000 -0.1173 -0.9931
vn 0.0000 0.2474 -0.9689
vn 0.0000 -0.0965 -0.9953
vn 1.0000 0.0000 -0.0000
# 18 vertex normals

vt 0.5176 0.5000 1.0000
vt 0.4864 0.5000 1.0000
vt 0.4864 0.0688 1.0000
vt 0.5176 0.0688 1.0000
vt 0.5176 1.7539 1.0000
vt 0.4864 1.7539 1.0000
vt 0.5489 0.9774 0.0688
vt 0.5176 0.9774 0.0688
vt 0.5176 0.7307 0.0688
vt 0.5489 0.7307 0.0688
vt 0.8445 0.0123 0.0000
vt 0.8601 0.0123 0.0000
vt 0.8601 0.1011 0.0000
vt 0.8445 0.1011 0.0000
vt 0.1440 0.5000 0.4511
vt 0.0226 0.5000 0.4511
vt 0.0226 0.0688 0.4511
vt 0.2693 0.0688 0.4511
vt 0.4864 0.9774 0.0688
vt 0.4864 0.7307 0.0688
vt 0.8289 0.0123 0.0000
vt 0.8289 0.1011 0.0000
vt 0.0226 1.7539 0.4511
vt 0.2921 1.7539 0.4511
vt 0.5176 2.0688 1.0000
vt 0.4864 2.0688 1.0000
vt 0.2007 2.0688 0.4511
vt 0.0226 2.0688 0.4511
vt 0.4511 0.5000 0.8560
vt 0.4511 0.0688 0.7307
vt 0.4824 0.0688 0.7307
vt 0.4824 0.5000 0.8560
vt 0.4511 1.7539 0.7079
vt 0.4824 1.7539 0.7079
vt 0.1440 0.5000 0.4824
vt 0.2693 0.0688 0.4824
vt 0.3305 0.0688 0.4824
vt 0.2204 0.5000 0.4824
vt 0.2921 1.7539 0.4824
vt 0.3367 1.7003 0.4824
vt 0.4824 0.5000 0.7796
vt 0.4824 0.0688 0.6695
vt 0.5489 0.0688 0.6695
vt 0.5489 0.5000 0.7796
vt 0.4824 1.7003 0.6633
vt 0.5489 1.7003 0.6633
vt 0.5176 1.0000 0.0688
vt 0.4864 1.0000 0.0688
vt 0.8289 0.0010 0.0000
vt 0.8445 0.0010 0.0000
vt 0.5489 0.0688 0.9774
vt 0.5489 0.5000 0.9774
vt 0.5176 0.5000 0.9774
vt 0.5176 0.0688 0.9774
vt 0.5489 1.7539 0.9774
vt 0.5176 1.7539 0.9774
vt 0.5489 2.0688 0.9774
vt 0.5176 2.0688 0.9774
vt 0.0226 0.0688 0.4824
vt 0.0226 0.5000 0.4824
vt 0.0000 0.5000 0.4824
vt 0.0000 0.0688 0.4824
vt 0.0226 1.7539 0.4824
vt 0.0000 1.7539 0.4824
vt 0.0226 2.0688 0.4824
vt 0.0000 2.0688 0.4824
vt 0.8601 0.3999 0.0000
vt 0.8445 0.3999 0.0000
vt 0.8289 0.3999 0.0000
vt 0.7079 1.7539 0.4511
vt 0.7993 2.0688 0.4511
vt 0.5489 0.7079 1.7539
vt 0.5176 0.7079 1.7539
vt 0.5176 0.2921 1.7539
vt 0.5489 0.2921 1.7539
vt 0.6633 1.7003 0.4824
vt 0.7079 1.7539 0.4824
vt 0.4824 0.5000 0.0000
vt 0.4824 0.0688 0.0000
vt 0.5136 0.0688 0.0000
vt 0.5136 0.5000 0.0000
vt 0.4824 1.7539 0.0000
vt 0.5136 1.7539 0.0000
vt 0.5489 0.0226 0.0688
vt 0.5489 0.2693 0.0688
vt 0.5176 0.2693 0.0688
vt 0.5176 0.0226 0.0688
vt 0.8445 0.4887 0.0000
vt 0.8601 0.4887 0.0000
vt 0.8560 0.5000 0.4511
vt 0.7307 0.0688 0.4511
vt 0.9774 0.0688 0.4511
vt 0.9774 0.5000 0.4511
vt 0.4864 0.2693 0.0688
vt 0.4864 0.0226 0.0688
vt 0.8289 0.4887 0.0000
vt 0.9774 1.7539 0.4511
vt 0.4824 2.0688 0.0000
vt 0.5136 2.0688 0.0000
vt 0.9774 2.0688 0.4511
vt 0.5489 0.5000 0.1440
vt 0.5176 0.5000 0.1440
vt 0.5176 0.0688 0.2693
vt 0.5489 0.0688 0.2693
vt 0.5489 1.7539 0.2921
vt 0.5176 1.7539 0.2921
vt 0.8560 0.5000 0.4824
vt 0.7796 0.5000 0.4824
vt 0.6695 0.0688 0.4824
vt 0.7307 0.0688 0.4824
vt 0.5176 0.5000 0.2204
vt 0.4511 0.5000 0.2204
vt 0.4511 0.0688 0.3305
vt 0.5176 0.0688 0.3305
vt 0.5176 1.7003 0.3367
vt 0.4511 1.7003 0.3367
vt 0.5176 0.0000 0.0688
vt 0.4864 0.0000 0.0688
vt 0.8289 0.5000 0.0000
vt 0.8445 0.5000 0.0000
vt 0.4511 0.0688 0.0226
vt 0.4824 0.0688 0.0226
vt 0.4824 0.5000 0.0226
vt 0.4511 0.5000 0.0226
vt 0.4824 1.7539 0.0226
vt 0.4511 1.7539 0.0226
vt 0.4824 2.0688 0.0226
vt 0.4511 2.0688 0.0226
vt 0.9774 0.0688 0.4824
vt 1.0000 0.0688 0.4824
vt 1.0000 0.5000 0.4824
vt 0.9774 0.5000 0.4824
vt 1.0000 1.7539 0.4824
vt 0.9774 1.7539 0.4824
vt 1.0000 2.0688 0.4824
vt 0.9774 2.0688 0.4824
vt 0.4511 0.6633 1.7003
vt 0.4511 0.3367 1.7003
vt 0.5176 0.3367 1.7003
vt 0.5176 0.6633 1.7003
vt 0.2204 0.5000 0.5489
vt 0.3305 0.0688 0.5489
vt 0.6695 0.0688 0.5489
vt 0.7796 0.5000 0.5489
vt 0.6633 1.7003 0.5489
vt 0.3367 1.7003 0.5489
vt 0.7543 0.1011 0.0000
vt 0.7543 0.3999 0.0000
vt 0.7543 0.4887 0.0000
vt 0.7543 0.0123 0.0000
vt 0.6768 0.3351 0.0000
vt 0.7338 0.3351 0.0000
vt 0.7514 0.3656 0.0000
vt 0.6768 0.3656 0.0000
vt 0.7514 0.4887 0.0000
vt 0.6768 0.4887 0.0000
vt 0.7514 0.5000 0.0000
vt 0.6768 0.5000 0.0000
vt 0.6768 0.1354 0.0000
vt 0.7514 0.1354 0.0000
vt 0.7338 0.1659 0.0000
vt 0.6768 0.1659 0.0000
vt 0.6768 0.0123 0.0000
vt 0.7514 0.0123 0.0000
vt 0.6768 0.0010 0.0000
vt 0.7514 0.0010 0.0000
vt 0.7543 0.5000 0.0000
vt 0.7543 0.0010 0.0000
vt 0.0010 0.8419 0.0000
vt 0.0756 0.8419 0.0000
vt 0.0756 0.9990 0.0000
vt 0.0010 0.9990 0.0000
vt 0.0010 0.2162 0.0000
vt 0.0756 0.2162 0.0000
vt 0.0010 0.0010 0.0000
vt 0.0756 0.0010 0.0000
vt 0.1617 0.9990 0.0000
vt 0.0871 0.9990 0.0000
vt 0.0871 0.8419 0.0000
vt 0.1617 0.8419 0.0000
vt 0.0871 0.2162 0.0000
vt 0.1617 0.2162 0.0000
vt 0.0871 0.0010 0.0000
vt 0.1617 0.0010 0.0000
vt 0.6722 0.0010 0.0000
vt 0.6722 0.2162 0.0000
vt 0.6104 0.1029 0.0000
vt 0.6722 0.8419 0.0000
vt 0.6104 0.8709 0.0000
vt 0.6722 0.9990 0.0000
vt 0.6609 0.9990 0.0000
vt 0.5720 0.9990 0.0000
vt 0.2733 0.9990 0.0000
vt 0.2351 0.8709 0.0000
vt 0.1845 0.9990 0.0000
vt 0.1732 0.9990 0.0000
vt 0.1732 0.8419 0.0000
vt 0.1732 0.2162 0.0000
vt 0.2351 0.1029 0.0000
vt 0.1732 0.0010 0.0000
vt 0.1845 0.0010 0.0000
vt 0.3075 0.0010 0.0000
vt 0.3381 0.0010 0.0000
vt 0.5073 0.0010 0.0000
vt 0.5378 0.0010 0.0000
vt 0.6609 0.0010 0.0000
# 206 texture coords

o SM_Wall_Tall_Deco
g SM_Wall_Tall_Deco
s off
f 1/1/1 2/2/1 3/3/1 
f 3/3/1 4/4/1 1/1/1 
f 5/5/1 6/6/1 2/2/1 
f 2/2/1 1/1/1 5/5/1 
f 7/7/2 8/8/2 9/9/2 
f 9/9/2 10/10/2 7/7/2 
f 11/11/3 12/12/3 13/13/3 
f 13/13/3 14/14/3 11/11/3 
f 15/15/4 16/16/4 7/17/4 
f 7/17/5 10/18/5 15/15/5 
f 8/8/2 17/19/2 18/20/2 
f 18/20/2 9/9/2 8/8/2 
f 19/21/3 11/11/3 14/14/3 
f 14/14/3 20/22/3 19/21/3 
f 21/23/4 16/16/4 15/15/4 
f 15/15/4 22/24/4 21/23/4 
f 23/25/1 24/26/1 6/6/1 
f 6/6/1 5/5/1 23/25/1 
f 13/27/4 12/28/4 21/23/4 
f 21/23/5 22/24/5 13/27/5 
f 15/29/6 10/30/6 9/31/6 
f 9/31/6 25/32/6 15/29/6 
f 22/33/7 15/29/7 25/32/7 
f 25/32/7 26/34/7 22/33/7 
f 25/35/8 9/36/8 27/37/8 
f 27/37/4 28/38/4 25/35/4 
f 26/39/4 25/35/4 28/38/4 
f 28/38/4 29/40/4 26/39/4 
f 28/41/9 27/42/9 30/43/9 
f 30/43/9 31/44/9 28/41/9 
f 29/45/10 28/41/10 31/44/10 
f 31/44/10 32/46/10 29/45/10 
f 4/47/2 3/48/2 17/19/2 
f 17/19/2 8/8/2 4/47/2 
f 24/49/3 23/50/3 11/11/3 
f 11/11/3 19/21/3 24/49/3 
f 7/51/11 16/52/11 33/53/11 
f 33/53/11 8/54/11 7/51/11 
f 16/52/11 21/55/11 34/56/11 
f 34/56/11 33/53/11 16/52/11 
f 21/55/11 12/57/11 11/58/11 
f 11/58/11 34/56/11 21/55/11 
f 8/59/8 33/60/8 1/61/8 
f 1/61/4 4/62/4 8/59/4 
f 33/60/8 34/63/8 5/64/8 
f 5/64/8 1/61/8 33/60/8 
f 34/63/5 11/65/5 23/66/5 
f 23/66/8 5/64/8 34/63/8 
f 14/14/3 13/13/3 35/67/3 
f 35/67/3 36/68/3 14/14/3 
f 20/22/3 14/14/3 36/68/3 
f 36/68/3 37/69/3 20/22/3 
f 22/24/4 38/70/4 35/71/4 
f 35/71/4 13/27/4 22/24/4 
f 22/72/2 26/73/2 39/74/2 
f 39/74/2 38/75/2 22/72/2 
f 29/40/4 40/76/4 39/77/4 
f 39/77/4 26/39/4 29/40/4 
f 41/78/12 42/79/12 43/80/12 
f 43/80/12 44/81/12 41/78/12 
f 45/82/12 41/78/12 44/81/12 
f 44/81/12 46/83/12 45/82/12 
f 47/84/2 48/85/2 49/86/2 
f 49/86/2 50/87/2 47/84/2 
f 51/88/3 36/68/3 35/67/3 
f 35/67/3 52/89/3 51/88/3 
f 53/90/13 48/91/13 47/92/13 
f 47/92/8 54/93/8 53/90/8 
f 50/87/2 49/86/2 55/94/2 
f 55/94/2 56/95/2 50/87/2 
f 57/96/3 37/69/3 36/68/3 
f 36/68/3 51/88/3 57/96/3 
f 58/97/8 38/70/8 53/90/8 
f 53/90/8 54/93/8 58/97/8 
f 59/98/12 45/82/12 46/83/12 
f 46/83/12 60/99/12 59/98/12 
f 35/71/13 38/70/13 58/97/13 
f 58/97/8 52/100/8 35/71/8 
f 53/101/14 61/102/14 49/103/14 
f 49/103/14 48/104/14 53/101/14 
f 38/105/15 39/106/15 61/102/15 
f 61/102/15 53/101/15 38/105/15 
f 61/107/4 62/108/4 63/109/4 
f 63/109/4 49/110/4 61/107/4 
f 39/77/4 40/76/4 62/108/4 
f 62/108/4 61/107/4 39/77/4 
f 62/111/16 64/112/16 65/113/16 
f 65/113/16 63/114/16 62/111/16 
f 40/115/17 66/116/17 64/112/17 
f 64/112/17 62/111/17 40/115/17 
f 42/117/2 50/87/2 56/95/2 
f 56/95/2 43/118/2 42/117/2 
f 60/119/3 57/96/3 51/88/3 
f 51/88/3 59/120/3 60/119/3 
f 47/121/12 50/122/12 67/123/12 
f 67/123/12 54/124/12 47/121/12 
f 54/124/12 67/123/12 68/125/12 
f 68/125/12 58/126/12 54/124/12 
f 58/126/12 68/125/12 51/127/12 
f 51/127/12 52/128/12 58/126/12 
f 50/129/8 42/130/8 41/131/8 
f 41/131/4 67/132/4 50/129/4 
f 67/132/4 41/131/4 45/133/4 
f 45/133/4 68/134/4 67/132/4 
f 68/134/4 45/133/4 59/135/4 
f 59/135/13 51/136/13 68/134/13 
f 32/137/2 66/138/2 40/139/2 
f 40/139/2 29/140/2 32/137/2 
f 31/141/4 30/142/4 65/143/4 
f 65/143/4 64/144/4 31/141/4 
s 3
f 31/141/4 64/144/4 66/145/4 
f 66/145/4 32/146/4 31/141/4 
s 1
f 63/109/2 65/113/2 55/94/2 
f 55/94/2 49/86/2 63/109/2 
f 27/37/2 9/9/2 18/20/2 
f 18/20/2 30/43/2 27/37/2 
f 69/147/3 20/22/3 37/69/3 
f 37/69/3 70/148/3 69/147/3 
s 2
f 70/148/3 37/69/3 57/96/3 
f 57/96/3 71/149/3 70/148/3 
f 72/150/3 19/21/3 20/22/3 
f 20/22/3 69/147/3 72/150/3 
f 73/151/2 30/152/2 18/153/2 
f 18/153/2 74/154/2 73/151/2 
s 4
f 74/154/2 18/153/2 17/155/2 
f 17/155/2 75/156/2 74/154/2 
s 1
f 75/156/2 17/155/2 3/157/2 
f 3/157/2 76/158/2 75/156/2 
s 2
f 77/159/2 55/160/2 65/161/2 
f 65/161/2 78/162/2 77/159/2 
s 4
f 79/163/2 56/164/2 55/160/2 
f 55/160/2 77/159/2 79/163/2 
s 1
f 80/165/2 43/166/2 56/164/2 
f 56/164/2 79/163/2 80/165/2 
s 4
f 78/162/2 65/161/2 30/152/2 
f 30/152/2 73/151/2 78/162/2 
s 8
f 71/149/3 57/96/3 60/119/3 
f 60/119/3 81/167/3 71/149/3 
s 1
f 82/168/3 24/49/3 19/21/3 
f 19/21/3 72/150/3 82/168/3 
s 2
f 83/169/11 6/170/11 24/171/11 
f 24/171/11 82/172/11 83/169/11 
s 1
f 84/173/11 2/174/11 6/170/11 
f 6/170/11 83/169/11 84/173/11 
s 2
f 76/175/11 3/176/11 2/174/11 
f 2/174/11 84/173/11 76/175/11 
s 1
f 81/177/12 60/178/12 46/179/12 
f 46/179/12 85/180/12 81/177/12 
s 2
f 85/180/12 46/179/12 44/181/12 
f 44/181/12 86/182/12 85/180/12 
s 4
f 86/182/12 44/181/12 43/183/12 
f 43/183/12 80/184/12 86/182/12 
s off
f 76/185/18 84/186/18 87/187/18 
f 84/186/18 83/188/18 88/189/18 
f 88/189/18 87/187/18 84/186/18 
f 83/188/18 82/190/18 88/189/18 
f 82/190/18 72/191/18 88/189/18 
f 72/191/18 69/192/18 88/189/18 
f 69/192/18 70/193/18 89/194/18 
f 89/194/18 88/189/18 69/192/18 
f 70/193/18 71/195/18 89/194/18 
f 71/195/18 81/196/18 89/194/18 
f 81/196/18 85/197/18 89/194/18 
f 85/197/18 86/198/18 90/199/18 
f 90/199/18 89/194/18 85/197/18 
f 86/198/18 80/200/18 90/199/18 
f 80/200/18 79/201/18 90/199/18 
f 79/201/18 77/202/18 90/199/18 
f 77/202/18 78/203/18 90/199/18 
f 78/203/18 73/204/18 87/187/18 
f 87/187/18 90/199/18 78/203/18 
f 73/204/18 74/205/18 87/187/18 
f 74/205/18 75/206/18 87/187/18 
f 75/206/18 76/185/18 87/187/18 
s 16
f 90/199/18 87/187/18 88/189/18 
f 88/189/18 89/194/18 90/199/18 
# 176 faces

